{"title":"Rychly Prachy (Praha - 17.08.2013) - Kristyna","uid":8869002,"size":377161600,"categoryP":"porn","categoryS":"movies","magnet":"?xt=urn:btih:64b3b501ed4e120afda6560447f6c35baa64cb50&amp;dn=Rychly+Prachy+%28Praha+-+17.08.2013%29+-+Kristyna&amp;tr=udp%3A%2F%2Ftracker.openbittorrent.com%3A80&amp;tr=udp%3A%2F%2Fopen.demonii.com%3A1337&amp;tr=udp%3A%2F%2Ftracker.coppersurfer.tk%3A6969&amp;tr=udp%3A%2F%2Fexodus.desync.com%3A6969","seeders":0,"leechers":1,"uploader":null,"files":3,"time":1378004887,"description":"\n                Rychly Prachy (Praha - 17.08.2013) - Kristyna\n\n\n\nScreen:\n  &lt;a href=&quot;\nhttp://image.bayimg.com/1fc85cd374356b21c147996fbae378e341d919b1.jpg&quot; rel=&quot;nofollow&quot; target=&quot;_NEW&quot;&gt;\nhttp://image.bayimg.com/1fc85cd374356b21c147996fbae378e341d919b1.jpg&lt;/a&gt;\n\n\nOficial website:\n  &lt;a href=&quot;\nhttp://rychlyprachy.cz&quot; rel=&quot;nofollow&quot; target=&quot;_NEW&quot;&gt;\nhttp://rychlyprachy.cz&lt;/a&gt;\n\n\nDirect Link:\n  &lt;a href=&quot;\nhttp://rychlyprachy.cz/video68.cz.html&quot; rel=&quot;nofollow&quot; target=&quot;_NEW&quot;&gt;\nhttp://rychlyprachy.cz/video68.cz.html&lt;/a&gt;\n\n\nGeneral\nComplete name                            : Rychly Prachy (Praha - 17.08.2013) - Kristyna.wmv\nFormat                                   : Windows Media\nFile size                                : 360 MiB\nDuration                                 : 19mn 4s\nOverall bit rate mode                    : Constant\nOverall bit rate                         : 2 634 Kbps\nMaximum Overall bit rate                 : 2 645 Kbps\nEncoded date                             : UTC 2013-08-18 19:56:35.871\nSfOriginalFPS                            : 300000\n\nVideo\nID                                       : 2\nFormat                                   : VC-1\nFormat profile                           : MP@ML\nCodec ID                                 : WMV3\nCodec ID/Info                            : Windows Media Video 9\nCodec ID/Hint                            : WMV3\nDescription of the codec                 : Windows Media Video 9 - Professional\nDuration                                 : 19mn 4s\nBit rate mode                            : Constant\nBit rate                                 : 2 525 Kbps\nWidth                                    : 640 pixels\nHeight                                   : 480 pixels\nDisplay aspect ratio                     : 4:3\nFrame rate                               : 30.000 fps\nColor space                              : YUV\nChroma subsampling                       : 4:2:0\nBit depth                                : 8 bits\nScan type                                : Progressive\nCompression mode                         : Lossy\nBits/(Pixel*Frame)                       : 0.274\nStream size                              : 345 MiB (96%)\nLanguage                                 : Czech\n\nAudio\nID                                       : 1\nFormat                                   : WMA\nFormat version                           : Version 2\nCodec ID                                 : 161\nCodec ID/Info                            : Windows Media Audio\nDescription of the codec                 : Windows Media Audio 9.2 -  96 kbps, 44 kHz, stereo (A/V) 1-pass CBR\nDuration                                 : 19mn 4s\nBit rate mode                            : Constant\nBit rate                                 : 96.0 Kbps\nChannel(s)                               : 2 channels\nSampling rate                            : 44.1 KHz\nBit depth                                : 16 bits\nStream size                              : 13.1 MiB (4%)\nLanguage                                 : Czech","torrent":{"xt":"urn:btih:64b3b501ed4e120afda6560447f6c35baa64cb50","amp;dn":"Rychly+Prachy+%28Praha+-+17.08.2013%29+-+Kristyna","amp;tr":["udp%3A%2F%2Ftracker.openbittorrent.com%3A80","udp%3A%2F%2Fopen.demonii.com%3A1337","udp%3A%2F%2Ftracker.coppersurfer.tk%3A6969","udp%3A%2F%2Fexodus.desync.com%3A6969"],"infoHash":"64b3b501ed4e120afda6560447f6c35baa64cb50","infoHashBuffer":{"type":"Buffer","data":[100,179,181,1,237,78,18,10,253,166,86,4,71,246,195,91,170,100,203,80]},"announce":[],"urlList":[]}}